HIERARCHY
ROOT Hips
{
	OFFSET 0.00000 0.00000 0.00000
	CHANNELS 6 Xposition Yposition Zposition Zrotation Yrotation Xrotation 
	JOINT LHipJoint
	{
		OFFSET 0 0 0
		CHANNELS 3 Zrotation Yrotation Xrotation
		JOINT LeftUpLeg
		{
			OFFSET 1.57358 -1.76629 0.73362
			CHANNELS 3 Zrotation Yrotation Xrotation
			JOINT LeftLeg
			{
				OFFSET 2.40600 -6.61045 0.00000
				CHANNELS 3 Zrotation Yrotation Xrotation
				JOINT LeftFoot
				{
					OFFSET 2.66168 -7.31291 0.00000
					CHANNELS 3 Zrotation Yrotation Xrotation
					JOINT LeftToeBase
					{
						OFFSET 0.20870 -0.57341 2.12506
						CHANNELS 3 Zrotation Yrotation Xrotation
						End Site
						{
							OFFSET 0.00000 -0.00000 1.10557
						}
					}
				}
			}
		}
	}
	JOINT RHipJoint
	{
		OFFSET 0 0 0
		CHANNELS 3 Zrotation Yrotation Xrotation
		JOINT RightUpLeg
		{
			OFFSET -1.49299 -1.76629 0.73362
			CHANNELS 3 Zrotation Yrotation Xrotation
			JOINT RightLeg
			{
				OFFSET -2.43663 -6.69460 0.00000
				CHANNELS 3 Zrotation Yrotation Xrotation
				JOINT RightFoot
				{
					OFFSET -2.62959 -7.22474 0.00000
					CHANNELS 3 Zrotation Yrotation Xrotation
					JOINT RightToeBase
					{
						OFFSET -0.25784 -0.70841 2.21862
						CHANNELS 3 Zrotation Yrotation Xrotation
						End Site
						{
							OFFSET -0.00000 -0.00000 1.16452
						}
					}
				}
			}
		}
	}
	JOINT LowerBack
	{
		OFFSET 0 0 0
		CHANNELS 3 Zrotation Yrotation Xrotation
		JOINT Spine
		{
			OFFSET -0.00034 2.12399 -0.25450
			CHANNELS 3 Zrotation Yrotation Xrotation
			JOINT Spine1
			{
				OFFSET 0.05594 2.14379 -0.03318
				CHANNELS 3 Zrotation Yrotation Xrotation
				JOINT Neck
				{
					OFFSET 0 0 0
					CHANNELS 3 Zrotation Yrotation Xrotation
					JOINT Neck1
					{
						OFFSET -0.09835 1.62725 0.24211
						CHANNELS 3 Zrotation Yrotation Xrotation
						JOINT Head
						{
							OFFSET 0.10849 1.66041 -0.22648
							CHANNELS 3 Zrotation Yrotation Xrotation
							End Site
							{
								OFFSET 0.04385 1.68267 -0.10541
							}
						}
					}
				}
				JOINT LeftShoulder
				{
					OFFSET 0 0 0
					CHANNELS 3 Zrotation Yrotation Xrotation
					JOINT LeftArm
					{
						OFFSET 3.29108 0.79398 -0.68179
						CHANNELS 3 Zrotation Yrotation Xrotation
						JOINT LeftForeArm
						{
							OFFSET 5.15310 -0.00000 -0.00000
							CHANNELS 3 Zrotation Yrotation Xrotation
							JOINT LeftHand
							{
								OFFSET 3.75138 -0.00000 -0.00000
								CHANNELS 3 Zrotation Yrotation Xrotation
								JOINT LeftFingerBase
								{
									OFFSET 0 0 0
									CHANNELS 3 Zrotation Yrotation Xrotation
									JOINT LeftHandIndex1
									{
										OFFSET 0.52917 -0.00000 0.00000
										CHANNELS 3 Zrotation Yrotation Xrotation
										End Site
										{
											OFFSET 0.42663 -0.00000 0.00000
										}
									}
								}
								JOINT LThumb
								{
									OFFSET 0 0 0
									CHANNELS 3 Zrotation Yrotation Xrotation
									End Site
									{
										OFFSET 0.43315 -0.00000 0.43315
									}
								}
							}
						}
					}
				}
				JOINT RightShoulder
				{
					OFFSET 0 0 0
					CHANNELS 3 Zrotation Yrotation Xrotation
					JOINT RightArm
					{
						OFFSET -3.07414 1.06285 -0.44338
						CHANNELS 3 Zrotation Yrotation Xrotation
						JOINT RightForeArm
						{
							OFFSET -5.29613 -0.00000 0.00000
							CHANNELS 3 Zrotation Yrotation Xrotation
							JOINT RightHand
							{
								OFFSET -3.76144 -0.00000 -0.00000
								CHANNELS 3 Zrotation Yrotation Xrotation
								JOINT RightFingerBase
								{
									OFFSET 0 0 0
									CHANNELS 3 Zrotation Yrotation Xrotation
									JOINT RightHandIndex1
									{
										OFFSET -0.74732 -0.00000 0.00000
										CHANNELS 3 Zrotation Yrotation Xrotation
										End Site
										{
											OFFSET -0.60251 -0.00000 0.00000
										}
									}
								}
								JOINT RThumb
								{
									OFFSET 0 0 0
									CHANNELS 3 Zrotation Yrotation Xrotation
									End Site
									{
										OFFSET -0.61171 -0.00000 0.61171
									}
								}
							}
						}
					}
				}
			}
		}
	}
}
MOTION
Frames: 6
Frame Time: .0083333
11.5381 17.4685 -26.3133 0 0 0 0 0 0 -21 0 0 0 0 0 0 0 0 0 0 0 0 0 0 21 0 0 0 0 0 0 0 0 0 0 0 0 0 0 0 0 0 0 0 0 0 0 -16 0 0 21 0 0 11 0 0 0 -8 0 0 0 0 0 0 0 0 0 0 0 0 0 0 0 0 0 0 0 0 8 0 0 0 0 0 0 0 0 0 0 0 0 0 0 0 0 0
11.5381 17.4685 -26.3133 -4.6256 -1.6709 2.4015 0.0000 0.0000 0.0000 -9.1664 -16.2345 -27.7458 1.2124 6.9850 19.6710 0.2546 6.3180 -13.9000 0.2126 -2.9688 -8.1918 0.0000 0.0000 0.0000 30.6105 2.4221 8.3332 -0.4778 -4.4328 12.2975 -0.5503 -1.7221 -14.7428 -0.0003 0.1140 -0.3133 3.9190 0.9319 5.7030 3.2160 1.6033 0.0549 0.9884 0.7609 -3.1296 -9.1884 -4.1492 -14.1682 5.5020 -4.7764 18.8788 2.8193 -2.3592 8.5804 0.0000 0.0000 0.0000 -93.6928 3.2869 14.5338 12.2578 -20.1902 -2.1905 -0.0000 -0.0000 11.0308 15.7362 24.7208 6.7205 -7.1250 0.0000 -0.0000 -14.6741 54.9373 -3.6393 0.0000 0.0000 0.0000 83.6617 6.0290 19.9525 -18.6632 28.9980 -4.8665 0.0000 0.0000 4.4290 -13.3307 10.9189 -2.5699 7.1250 -0.0000 -0.0000 9.6846 -18.8526 6.1235
11.5537 17.4662 -26.1726 -4.7377 -1.6161 2.5899 0.0000 0.0000 0.0000 -8.5473 -17.5205 -27.8108 1.1781 6.8889 19.3867 0.3664 6.7674 -15.8851 0.1388 -2.4015 -6.6166 0.0000 0.0000 0.0000 30.5905 1.9031 8.8818 -0.4215 -4.1671 11.5472 -0.5111 -1.7688 -14.2619 -0.0241 1.0022 -2.7548 4.0198 0.9520 5.5755 3.1942 1.6305 0.0021 0.9092 0.7727 -3.1090 -9.2568 -4.1574 -14.4395 5.6957 -4.8017 19.2575 2.8938 -2.3551 8.7666 -0.0000 -0.0000 0.0000 -93.6444 3.1561 12.5432 12.2865 -20.2329 -2.2004 -0.0000 -0.0000 16.1472 8.8801 25.1506 3.7990 -7.1250 0.0000 -0.0000 -21.7030 54.0552 -5.0115 -0.0000 -0.0000 0.0000 83.7105 6.1759 19.9000 -18.5080 28.8028 -4.7915 0.0000 0.0000 4.2584 -14.1907 11.7857 -2.9566 7.1250 -0.0000 -0.0000 9.0648 -17.9228 5.9099
11.5761 17.4513 -26.0218 -4.8139 -1.6830 2.7491 0.0000 0.0000 0.0000 -8.0747 -18.6234 -27.7825 1.1505 6.8104 19.1549 0.4287 7.6194 -17.4398 0.2001 -2.8801 -7.9451 0.0000 0.0000 0.0000 30.4985 1.5407 9.4515 -0.3857 -3.9883 11.0436 -0.4977 -1.5865 -13.9960 -0.0524 1.4777 -4.0643 4.2264 1.0109 5.3291 3.1055 1.7030 -0.0036 0.7011 0.8070 -2.9669 -9.3705 -4.1016 -14.5502 5.9825 -4.7531 19.3459 3.0172 -2.3100 8.8224 -0.0000 -0.0000 0.0000 -93.5403 3.2807 14.1604 12.1300 -19.9994 -2.1466 -0.0000 -0.0000 11.7063 13.2299 27.5450 6.2048 -7.1250 0.0000 -0.0000 -18.8358 57.1529 -5.7461 -0.0000 -0.0000 0.0000 83.8746 6.3277 19.6078 -18.2852 28.5208 -4.6846 0.0000 0.0000 4.4562 -15.2838 12.2076 -3.3070 7.1250 -0.0000 -0.0000 8.2999 -17.4193 5.4928
11.5961 17.4381 -25.8802 -4.9565 -1.6010 2.8988 0.0000 0.0000 0.0000 -8.2376 -17.7607 -28.3826 1.1428 6.7883 19.0898 0.4324 7.0155 -16.9379 0.2346 -3.1175 -8.6059 0.0000 0.0000 0.0000 30.5581 1.3997 10.1581 -0.3430 -3.7635 10.4124 -0.4757 -1.5720 -13.6941 -0.0678 1.6794 -4.6204 4.4034 0.9378 5.2158 3.1288 1.6119 -0.0479 0.6353 0.7591 -2.9467 -9.4308 -4.0899 -14.6382 6.0588 -4.7297 19.3160 3.0552 -2.2941 8.8296 0.0000 0.0000 0.0000 -93.6384 3.3299 14.5937 12.0457 -19.8731 -2.1178 -0.0000 -0.0000 9.6247 16.6835 27.4522 7.8664 -7.1250 0.0000 -0.0000 -15.2017 57.8004 -4.8369 0.0000 0.0000 0.0000 83.9420 6.4575 19.5464 -18.3426 28.5937 -4.7121 0.0000 0.0000 4.8300 -15.4561 12.8895 -3.5295 7.1250 -0.0000 -0.0000 8.1784 -16.7097 5.5388
11.6133 17.4386 -25.7395 -5.0950 -1.5674 3.0284 0.0000 0.0000 0.0000 -8.6374 -16.3580 -28.9541 1.1465 6.7990 19.1212 0.3849 6.2325 -15.6502 0.0321 -1.1559 -3.1778 0.0000 0.0000 0.0000 30.5917 1.2670 10.7362 -0.3157 -3.6121 9.9878 -0.4542 -1.5319 -13.3794 -0.0782 1.8034 -4.9626 4.4794 0.8838 5.3109 3.1891 1.5589 -0.1534 0.6569 0.7286 -3.1104 -9.4250 -4.0908 -14.8818 6.0444 -4.7123 19.4776 3.0505 -2.2841 8.9275 0.0000 0.0000 0.0000 -93.7616 3.2798 13.4772 11.9438 -19.7203 -2.0833 -0.0000 -0.0000 11.7847 16.1131 27.5787 7.6177 -7.1250 0.0000 -0.0000 -15.8756 57.7996 -5.0581 0.0000 0.0000 0.0000 83.9660 6.4259 19.5853 -18.5255 28.8249 -4.7999 0.0000 0.0000 4.9452 -14.6403 12.3067 -3.1869 7.1250 -0.0000 -0.0000 8.7457 -17.3632 5.8056
